<svg width="75" height="75" viewBox="0 0 75 75" fill="none" xmlns="http://www.w3.org/2000/svg">
<g filter="url(#filter0_d)">
<circle cx="37.5" cy="37.5" r="27.5" fill="#D29965"/>
</g>
<path d="M27.3636 40.5455H25V26.3636C25 25.7368 25.249 25.1356 25.6923 24.6923C26.1356 24.249 26.7368 24 27.3636 24H46.2727V26.3636H27.3636V40.5455ZM38 50C37.6866 50 37.386 49.8755 37.1643 49.6539C36.9427 49.4322 36.8182 49.1316 36.8182 48.8182V45.2727H32.0909C31.464 45.2727 30.8628 45.0237 30.4196 44.5804C29.9763 44.1372 29.7273 43.536 29.7273 42.9091V31.0909C29.7273 30.464 29.9763 29.8628 30.4196 29.4196C30.8628 28.9763 31.464 28.7273 32.0909 28.7273H48.6364C49.2632 28.7273 49.8644 28.9763 50.3077 29.4196C50.751 29.8628 51 30.464 51 31.0909V42.9091C51 43.536 50.751 44.1372 50.3077 44.5804C49.8644 45.0237 49.2632 45.2727 48.6364 45.2727H43.7909L39.4182 49.6573C39.1818 49.87 38.8982 50 38.5909 50H38ZM34.4545 33.4545V35.8182H46.2727V33.4545H34.4545ZM34.4545 38.1818V40.5455H43.9091V38.1818H34.4545Z" fill="white"/>
<defs>
<filter id="filter0_d" x="0" y="0" width="75" height="75" filterUnits="userSpaceOnUse" color-interpolation-filters="sRGB">
<feFlood flood-opacity="0" result="BackgroundImageFix"/>
<feColorMatrix in="SourceAlpha" type="matrix" values="0 0 0 0 0 0 0 0 0 0 0 0 0 0 0 0 0 0 127 0"/>
<feOffset/>
<feGaussianBlur stdDeviation="5"/>
<feColorMatrix type="matrix" values="0 0 0 0 0 0 0 0 0 0 0 0 0 0 0 0 0 0 0.4 0"/>
<feBlend mode="normal" in2="BackgroundImageFix" result="effect1_dropShadow"/>
<feBlend mode="normal" in="SourceGraphic" in2="effect1_dropShadow" result="shape"/>
</filter>
</defs>
</svg>
