<svg width="75" height="75" viewBox="0 0 75 75" fill="none" xmlns="http://www.w3.org/2000/svg">
<g filter="url(#filter0_d)">
<circle cx="37.5" cy="37.5" r="27.5" fill="#D29965"/>
</g>
<path d="M43.6667 49L40 45L41.5467 43.4533L43.6667 45.5733L48.4533 40.7867L50 42.6667L43.6667 49ZM38.0667 49H27.6667C26.9594 49 26.2811 48.719 25.781 48.219C25.281 47.7189 25 47.0406 25 46.3333V27.6667C25 26.1867 26.1867 25 27.6667 25H46.3333C47.0406 25 47.7189 25.281 48.219 25.781C48.719 26.2811 49 26.9594 49 27.6667V38.0667C47.8267 37.3867 46.4533 37 45 37L43.6667 37.1067V35.6667H30.3333V38.3333H40.5867C39.4835 39.0606 38.5782 40.0505 37.9522 41.2141C37.3261 42.3777 36.9989 43.6787 37 45C37 46.4533 37.3867 47.8267 38.0667 49ZM37 41H30.3333V43.6667H37V41ZM43.6667 30.3333H30.3333V33H43.6667" fill="white"/>
<defs>
<filter id="filter0_d" x="0" y="0" width="75" height="75" filterUnits="userSpaceOnUse" color-interpolation-filters="sRGB">
<feFlood flood-opacity="0" result="BackgroundImageFix"/>
<feColorMatrix in="SourceAlpha" type="matrix" values="0 0 0 0 0 0 0 0 0 0 0 0 0 0 0 0 0 0 127 0"/>
<feOffset/>
<feGaussianBlur stdDeviation="5"/>
<feColorMatrix type="matrix" values="0 0 0 0 0 0 0 0 0 0 0 0 0 0 0 0 0 0 0.4 0"/>
<feBlend mode="normal" in2="BackgroundImageFix" result="effect1_dropShadow"/>
<feBlend mode="normal" in="SourceGraphic" in2="effect1_dropShadow" result="shape"/>
</filter>
</defs>
</svg>
