<svg width="53" height="63" viewBox="0 0 53 63" fill="none" xmlns="http://www.w3.org/2000/svg">
<path d="M41.0299 7.75439H45.7919C50.0017 7.75439 52.6539 11.0256 52.6539 15.2383V54.7801C52.6539 58.9919 50.0017 63.0002 45.7919 63.0002H12.6761C8.46632 63.0002 5.18933 58.9919 5.18933 54.7801V15.2383C5.18933 11.0256 8.46632 7.75439 12.6761 7.75439H16.8133" fill="white"/>
<path d="M19.237 17.4456H39.2322L41.1376 4.84619H17.3307L19.237 17.4456Z" fill="#EDC951"/>
<path d="M36.8162 54.2761H13.9025C8.69105 54.2761 5.18933 50.9875 5.18933 46.0928V18.1081C5.18933 13.0158 9.09402 9.02783 14.0788 9.02783C14.8818 9.02783 15.5318 9.67877 15.5318 10.4818C15.5318 11.2839 14.8818 11.9358 14.0788 11.9358C10.7233 11.9358 8.09532 14.6471 8.09532 18.1081V46.0928C8.09532 49.3475 10.3203 51.3691 13.9025 51.3691H36.8162C39.8782 51.3691 42.9672 49.7369 42.9672 46.0928V18.1081C42.9672 14.7052 40.2036 11.9358 36.8075 11.9358C36.0045 11.9358 35.3545 11.2839 35.3545 10.4818C35.3545 9.67877 36.0045 9.02783 36.8075 9.02783C41.8058 9.02783 45.8732 13.1011 45.8732 18.1081V46.0928C45.8732 50.9119 42.1487 54.2761 36.8162 54.2761Z" fill="black"/>
<path d="M41.9173 61.0605H8.80154C3.98147 61.0605 0.346069 57.1103 0.346069 51.8727V12.3299C0.346069 7.04682 4.05993 2.90771 8.80154 2.90771H12.9387C13.7417 2.90771 14.3917 3.55866 14.3917 4.36168C14.3917 5.16373 13.7417 5.81468 12.9387 5.81468H8.80154C5.19714 5.81468 3.25206 9.1711 3.25206 12.3299V51.8727C3.25206 54.9938 5.15839 58.1536 8.80154 58.1536H41.9173C45.2224 58.1536 47.8106 55.3938 47.8106 51.8727V12.3299C47.8106 8.73811 45.1662 5.81468 41.9173 5.81468H37.1553C36.3523 5.81468 35.7023 5.16373 35.7023 4.36168C35.7023 3.55866 36.3523 2.90771 37.1553 2.90771H41.9173C46.7693 2.90771 50.7166 7.13497 50.7166 12.3299V51.8727C50.7166 57.0251 46.8517 61.0605 41.9173 61.0605Z" fill="black"/>
<path d="M21.6566 27.1384H11.0013C10.1983 27.1384 9.54834 26.4875 9.54834 25.6844C9.54834 24.8824 10.1983 24.2305 11.0013 24.2305H21.6566C22.4597 24.2305 23.1096 24.8824 23.1096 25.6844C23.1096 26.4875 22.4597 27.1384 21.6566 27.1384Z" fill="black"/>
<path d="M21.6566 31.0149H11.0013C10.1983 31.0149 9.54834 30.3639 9.54834 29.5619C9.54834 28.7589 10.1983 28.1079 11.0013 28.1079H21.6566C22.4597 28.1079 23.1096 28.7589 23.1096 29.5619C23.1096 30.3639 22.4597 31.0149 21.6566 31.0149Z" fill="black"/>
<path d="M21.6566 43.615H11.0013C10.1983 43.615 9.54834 42.964 9.54834 42.161C9.54834 41.3589 10.1983 40.707 11.0013 40.707H21.6566C22.4597 40.707 23.1096 41.3589 23.1096 42.161C23.1096 42.964 22.4597 43.615 21.6566 43.615Z" fill="black"/>
<path d="M21.6566 47.4919H11.0013C10.1983 47.4919 9.54834 46.841 9.54834 46.038C9.54834 45.2359 10.1983 44.585 11.0013 44.585H21.6566C22.4597 44.585 23.1096 45.2359 23.1096 46.038C23.1096 46.841 22.4597 47.4919 21.6566 47.4919Z" fill="black"/>
<path d="M35.3575 15.5073H15.3623C14.6436 15.5073 14.0333 14.9823 13.9258 14.2713L12.0204 1.67191C11.9565 1.25248 12.0786 0.827239 12.3546 0.505643C12.6317 0.184046 13.0337 0 13.457 0H37.2629C37.6862 0 38.0882 0.184046 38.3642 0.505643C38.6403 0.827239 38.7624 1.25248 38.6994 1.67191L36.7931 14.2713C36.6865 14.9823 36.0753 15.5073 35.3575 15.5073ZM16.6119 12.5994H34.107L35.5735 2.90793H15.1463L16.6119 12.5994Z" fill="black"/>
</svg>
