<svg width="66" height="44" viewBox="0 0 66 44" fill="none" xmlns="http://www.w3.org/2000/svg">
<path d="M66 35C66 39.418 62.418 43 58 43H14C9.582 43 6 39.418 6 35V13C6 8.582 9.582 5 14 5H58C62.418 5 66 8.582 66 13V35Z" fill="#EDC951"/>
<path d="M52.8459 5.02389C52.8459 5.02389 52.9999 19.5249 65.9999 18.1249V12.9519C65.9999 8.49189 62.4779 4.89289 58.0179 4.95289L52.8459 5.02389Z" fill="white"/>
<path d="M18.654 43.2719C18.654 43.2719 18 28.7709 5 30.1709V35.3439C5 39.8049 8.772 43.4029 13.232 43.3439L18.654 43.2719Z" fill="white"/>
<path d="M53.5 41H9.5C4.262 41 0 36.738 0 31.5V9.5C0 4.262 4.262 0 9.5 0H53.5C58.738 0 63 4.262 63 9.5V31.5C63 36.738 58.738 41 53.5 41ZM9.5 3C5.916 3 3 5.916 3 9.5V31.5C3 35.084 5.916 38 9.5 38H53.5C57.084 38 60 35.084 60 31.5V9.5C60 5.916 57.084 3 53.5 3H9.5Z" fill="black"/>
<path d="M59.784 16.7201C59.783 16.7201 59.783 16.7201 59.784 16.7201C49.676 16.7201 46.738 7.13415 46.596 2.06615C46.585 1.66515 46.735 1.27515 47.013 0.985148C47.291 0.696148 47.674 0.530149 48.076 0.524149L53.502 0.452148C58.739 0.452148 63 4.71415 63 9.95215V15.1251C63 15.8921 62.422 16.5341 61.661 16.6171C61.02 16.6861 60.389 16.7201 59.784 16.7201ZM49.745 3.50215C50.212 6.68715 52.113 13.7201 59.783 13.7201H59.784C59.855 13.7201 59.927 13.7201 60 13.7191V9.95215C60 6.36815 57.085 3.45215 53.502 3.45215L49.745 3.50215Z" fill="black"/>
<path d="M9.498 40.8442C4.261 40.8442 0 36.5832 0 31.3442V26.1712C0 25.4052 0.578 24.7622 1.339 24.6802C1.979 24.6112 2.611 24.5762 3.217 24.5762C13.323 24.5762 16.262 34.1622 16.404 39.2302C16.415 39.6322 16.265 40.0212 15.987 40.3112C15.708 40.6012 15.326 40.7672 14.924 40.7722L9.498 40.8442ZM3 27.5782V31.3442C3 34.9282 5.915 37.8442 9.498 37.8442L13.255 37.7942C12.783 34.5792 10.85 27.4432 3 27.5782Z" fill="black"/>
<path d="M34.231 29H27C26.171 29 25.5 28.329 25.5 27.5C25.5 26.671 26.171 26 27 26H34.231C35.207 26 36 25.254 36 24.338C36 23.038 34.413 23 34.231 23H30.519C27.728 23 26 20.354 26 17.902V17.267C26 14.715 27.816 13 30.519 13H37C37.829 13 38.5 13.671 38.5 14.5C38.5 15.329 37.829 16 37 16H30.519C29 16 29 16.921 29 17.267V17.902C29 18.893 29.649 20 30.519 20H34.231C36.995 20 39 21.822 39 24.332C39 26.909 36.861 29 34.231 29Z" fill="black"/>
<path d="M32.5 32.5C31.671 32.5 31 31.829 31 31V10C31 9.171 31.671 8.5 32.5 8.5C33.329 8.5 34 9.171 34 10V31C34 31.829 33.329 32.5 32.5 32.5Z" fill="black"/>
</svg>
