<svg width="63" height="61" viewBox="0 0 63 61" fill="none" xmlns="http://www.w3.org/2000/svg">
<path d="M12.9706 24.9413V7.08641C12.9706 4.53769 15.1339 2.70605 17.6817 2.70605H37.1376C39.6854 2.70605 41.6912 4.53769 41.6912 7.08641V20.5193V24.9413H12.9706Z" fill="#D29965"/>
<path d="M55.906 23.2681C60.0686 23.2681 63 26.6432 63 30.8058V52.476C63 56.6386 60.5115 60.1472 56.3488 60.1472H15.8361C11.6735 60.1472 7.41174 56.6386 7.41174 52.476V30.8058C7.41174 26.6432 11.0083 23.2681 15.1709 23.2681" fill="#EDC951"/>
<path d="M62.9435 27.979L39.8216 42.0771C37.5304 43.3862 34.7204 43.402 32.4145 42.1179L9.7113 27.979" fill="white"/>
<path d="M49.8636 59.2205H9.35087C4.19413 59.2205 0 55.3636 0 50.6229V28.9527C0 24.0267 3.90878 20.167 8.8969 20.167C9.66494 20.167 10.2866 20.7896 10.2866 21.5567C10.2866 22.3247 9.66494 22.9464 8.8969 22.9464C5.46618 22.9464 2.77941 25.585 2.77941 28.9527V50.6229C2.77941 53.8312 5.72744 56.4411 9.35087 56.4411H49.8636C53.2341 56.4411 55.5882 54.048 55.5882 50.6229V28.9527C55.5882 25.6091 52.9534 23.0882 49.4606 23.0882H38.9118C38.1446 23.0882 37.5221 22.4665 37.5221 21.6984C37.5221 20.9304 38.1446 20.3087 38.9118 20.3087H49.4606C54.4552 20.3087 58.3676 24.1054 58.3676 28.9527V50.6229C58.3676 55.6045 54.7915 59.2205 49.8636 59.2205Z" fill="black"/>
<path d="M29.5776 42.5959C28.0795 42.5959 26.5879 42.2225 25.2538 41.4795L2.49132 27.3054C1.84001 26.8996 1.64082 26.0427 2.04661 25.3914C2.45333 24.7382 3.31032 24.5427 3.9607 24.9457L26.6639 39.0855C28.4751 40.0917 30.7894 40.0778 32.647 39.017L54.7869 24.9531C55.4363 24.5409 56.2933 24.7326 56.7056 25.3812C57.116 26.0288 56.9252 26.8876 56.2776 27.299L34.0821 41.3971C32.6822 42.1966 31.1267 42.5959 29.5776 42.5959Z" fill="black"/>
<path d="M9.72796 26.331C8.96084 26.331 8.33826 25.7093 8.33826 24.9413V7.08632C8.33826 3.59075 10.8147 0.853027 13.9758 0.853027H33.4317C36.7846 0.853027 39.8383 3.82329 39.8383 7.08632V20.3089C39.8383 21.077 39.2157 21.6986 38.4485 21.6986C37.6814 21.6986 37.0588 21.077 37.0588 20.3089V7.08632C37.0588 5.3427 35.2615 3.63244 33.4317 3.63244H13.9758C12.1192 3.63244 11.1177 5.41126 11.1177 7.08632V24.9413C11.1177 25.7093 10.4951 26.331 9.72796 26.331Z" fill="black"/>
<path d="M33.353 11.0441H15.7501C14.9829 11.0441 14.3604 10.4224 14.3604 9.65435C14.3604 8.88631 14.9829 8.26465 15.7501 8.26465H33.353C34.1201 8.26465 34.7427 8.88631 34.7427 9.65435C34.7427 10.4224 34.1201 11.0441 33.353 11.0441Z" fill="black"/>
<path d="M33.353 16.6031H15.7501C14.9829 16.6031 14.3604 15.9806 14.3604 15.2134C14.3604 14.4454 14.9829 13.8237 15.7501 13.8237H33.353C34.1201 13.8237 34.7427 14.4454 34.7427 15.2134C34.7427 15.9806 34.1201 16.6031 33.353 16.6031Z" fill="black"/>
<path d="M33.353 22.1617H15.7501C14.9829 22.1617 14.3604 21.5401 14.3604 20.772C14.3604 20.004 14.9829 19.3823 15.7501 19.3823H33.353C34.1201 19.3823 34.7427 20.004 34.7427 20.772C34.7427 21.5401 34.1201 22.1617 33.353 22.1617Z" fill="black"/>
</svg>
