<svg width="63" height="56" viewBox="0 0 63 56" fill="none" xmlns="http://www.w3.org/2000/svg">
<path d="M32.094 33.8861L8.04501 23.4351C4.40101 21.8511 4.40101 16.6801 8.04501 15.0961L32.094 4.64408C33.248 4.14208 34.558 4.14208 35.713 4.64408L59.762 15.0961C63.405 16.6801 63.405 21.8511 59.762 23.4351L35.713 33.8861C34.558 34.3881 33.248 34.3881 32.094 33.8861Z" fill="#EDC951"/>
<path d="M59.5651 36.6108C63.1811 38.1818 63.1811 43.3138 59.5651 44.8858L35.6991 55.2588C34.5531 55.7568 33.2531 55.7568 32.1071 55.2588L8.24006 44.8858C4.62506 43.3138 4.62506 38.1818 8.24006 36.6108" fill="#D29965"/>
<path d="M55.801 33.1021L35.435 41.954C34.458 42.378 33.348 42.378 32.371 41.954L12.006 33.1021" fill="white"/>
<path d="M30.091 33.8561C29.258 33.8561 28.448 33.6881 27.683 33.3561L3.636 22.9031C1.393 21.9291 0 19.8041 0 17.3581C0 14.9111 1.393 12.7861 3.636 11.8121L27.683 1.36008C29.213 0.695078 30.969 0.695078 32.498 1.36008L56.547 11.8121C58.789 12.7861 60.181 14.9111 60.181 17.3581C60.181 19.8041 58.789 21.9291 56.547 22.9031L32.498 33.3561C31.733 33.6881 30.924 33.8561 30.091 33.8561ZM30.091 3.86108C29.671 3.86108 29.263 3.94608 28.879 4.11308L4.831 14.5651C3.684 15.0631 3 16.1081 3 17.3581C3 18.6081 3.684 19.6521 4.831 20.1501L28.879 30.6021C29.648 30.9361 30.533 30.9361 31.303 30.6021L55.351 20.1501C56.498 19.6521 57.181 18.6081 57.181 17.3581C57.181 16.1081 56.498 15.0631 55.351 14.5651L31.303 4.11308C30.918 3.94608 30.511 3.86108 30.091 3.86108Z" fill="black"/>
<path d="M30.091 55.2241C29.274 55.2241 28.458 55.0591 27.697 54.7281L3.83104 44.3561C1.60104 43.3871 0.217041 41.2731 0.217041 38.8411C0.217041 36.4091 1.60104 34.2951 3.83104 33.3261C4.59204 32.9961 5.47404 33.3451 5.80404 34.1051C6.13504 34.8661 5.78604 35.7501 5.02604 36.0801C3.89304 36.5731 3.21704 37.6051 3.21704 38.8411C3.21704 40.0771 3.89204 41.1091 5.02604 41.6021L28.892 51.9751C29.654 52.3061 30.527 52.3061 31.289 51.9751L55.156 41.6021C56.29 41.1091 56.966 40.0771 56.966 38.8411C56.966 37.6051 56.289 36.5731 55.156 36.0801C54.396 35.7501 54.048 34.8661 54.378 34.1051C54.707 33.3451 55.593 32.9961 56.351 33.3261C58.581 34.2951 59.966 36.4091 59.966 38.8411C59.966 41.2731 58.581 43.3871 56.351 44.3561L32.484 54.7281C31.723 55.0591 30.907 55.2241 30.091 55.2241Z" fill="black"/>
<path d="M30.091 41.8643C29.365 41.8643 28.638 41.7173 27.961 41.4233L7.59496 32.5713C6.83596 32.2423 6.48696 31.3573 6.81696 30.5973C7.14796 29.8373 8.03096 29.4883 8.79096 29.8183L29.156 38.6693C29.751 38.9283 30.432 38.9273 31.025 38.6693L51.391 29.8183C52.152 29.4883 53.035 29.8373 53.365 30.5973C53.695 31.3573 53.346 32.2423 52.587 32.5713L32.221 41.4233C31.544 41.7173 30.817 41.8643 30.091 41.8643Z" fill="black"/>
</svg>
