<svg width="58" height="62" viewBox="0 0 58 62" fill="none" xmlns="http://www.w3.org/2000/svg">
<path d="M22.415 11.9072C22.415 7.89531 26.0604 4.79785 30.0723 4.79785H50.1233C54.3626 4.79785 57.7873 8.28297 57.7873 12.5233V51.0457L49.8709 39.342H44.3525" fill="#EDC951"/>
<path d="M35.7289 12.4741H13.659C9.41875 12.4741 5.97009 15.9592 5.97009 20.1995V61.9999L14.5514 49.8969H35.7299C39.9692 49.8969 43.3939 46.5087 43.3939 42.2694V20.1995C43.3929 15.9592 39.9682 12.4741 35.7289 12.4741Z" fill="white"/>
<path d="M1.65211 59.6009C1.50913 59.6009 1.36328 59.5798 1.22127 59.5347C0.621541 59.3466 0.212769 58.7901 0.212769 58.1616V16.3612C0.212769 11.3293 3.8495 7.67627 8.86128 7.67627H30.9311C36.2145 7.67627 40.5143 11.5721 40.5143 16.3612V38.4311C40.5143 43.4275 35.9458 47.9778 30.9311 47.9778H10.505L2.83237 58.9849C2.55793 59.3783 2.11366 59.6009 1.65211 59.6009ZM8.86128 10.5549C5.40974 10.5549 3.09145 12.8886 3.09145 16.3612V53.5797L8.57245 45.7151C8.84112 45.3294 9.28252 45.0991 9.75271 45.0991H30.9311C34.3769 45.0991 37.6356 41.8586 37.6356 38.4311V16.3612C37.6356 12.7744 34.1553 10.5549 30.9311 10.5549H8.86128Z" fill="black"/>
<path d="M53.4683 48.6468C53.023 48.6468 52.5931 48.4395 52.3158 48.0691L44.3525 37.4228H39.5547C38.7601 37.4228 38.1153 36.7789 38.1153 35.9835C38.1153 35.188 38.7601 34.5441 39.5547 34.5441H45.0731C45.527 34.5441 45.954 34.7581 46.2255 35.1208L52.0289 42.8798V8.68497C52.0289 5.09814 48.5496 2.87868 45.3245 2.87868H25.2745C21.9036 2.87868 19.0575 5.47524 19.0575 8.54871C19.0575 9.34323 18.4127 9.98805 17.6182 9.98805C16.8237 9.98805 16.1788 9.34323 16.1788 8.54871C16.1788 3.91404 20.3433 0 25.2745 0H45.3254C50.6088 0 54.9086 3.89581 54.9086 8.68497V47.2074C54.9086 47.8273 54.5113 48.3771 53.9241 48.5729C53.7734 48.6228 53.6208 48.6468 53.4683 48.6468Z" fill="black"/>
<path d="M26.6006 31.1856C25.8061 31.1856 25.1613 30.5408 25.1613 29.7462V26.8676C25.1613 26.0721 25.8061 25.4282 26.6006 25.4282C27.3951 25.4282 28.0399 26.0721 28.0399 26.8676V29.7462C28.0399 30.5408 27.3951 31.1856 26.6006 31.1856Z" fill="black"/>
<path d="M20.8433 31.1856C20.0488 31.1856 19.4039 30.5408 19.4039 29.7462V26.8676C19.4039 26.0721 20.0488 25.4282 20.8433 25.4282C21.6378 25.4282 22.2826 26.0721 22.2826 26.8676V29.7462C22.2826 30.5408 21.6378 31.1856 20.8433 31.1856Z" fill="black"/>
<path d="M15.0859 31.1856C14.2914 31.1856 13.6466 30.5408 13.6466 29.7462V26.8676C13.6466 26.0721 14.2914 25.4282 15.0859 25.4282C15.8805 25.4282 16.5253 26.0721 16.5253 26.8676V29.7462C16.5253 30.5408 15.8805 31.1856 15.0859 31.1856Z" fill="black"/>
</svg>
