<svg width="68" height="62" viewBox="0 0 68 62" fill="none" xmlns="http://www.w3.org/2000/svg">
<path d="M59.6486 33.6089V61.7948H13.7161V33.6089" fill="#99746A"/>
<path d="M49.2095 34.6528V57.6191H22.0675V34.6528" fill="white"/>
<path d="M68 36.698L59.6184 20.0381H14.5732L5.74158 37.2002C5.74158 37.2002 5.74158 37.3171 5.90756 37.6303C6.53496 38.8151 9.54041 39.8047 13.8184 39.8047C18.0964 39.8047 21.5643 38.8203 21.5643 37.4778C21.5643 37.1667 21.701 37.0801 21.701 37.3922C21.701 38.7337 25.17 39.6951 29.4469 39.6951C33.7249 39.6951 37.1928 38.765 37.1928 37.4236C37.1928 37.1114 37.3306 37.053 37.3306 37.3651C37.3306 38.7055 40.7985 39.6805 45.0765 39.6805C49.3545 39.6805 52.8224 38.7577 52.8224 37.4162C52.8224 37.1052 52.9592 37.0488 52.9592 37.3609C52.9592 38.7024 56.2016 39.6795 60.4796 39.6795C64.7576 39.6795 68 38.7577 68 37.4152C68 37.1041 68 36.698 68 36.698Z" fill="#D29965"/>
<path d="M48.1655 20.0379V11.6865H35.6384V20.0379H48.1655Z" fill="#EDC951"/>
<path d="M51.2973 11.6869V5.42334H31.4628V11.6869H51.2973Z" fill="#EDC951"/>
<path d="M55.9949 59.707H10.0623C9.19693 59.707 8.49646 59.0065 8.49646 58.1411V36.7407C8.49646 35.8753 9.19693 35.1748 10.0623 35.1748C10.9278 35.1748 11.6282 35.8753 11.6282 36.7407V56.5752H54.429V36.7407C54.429 35.8753 55.1295 35.1748 55.9949 35.1748C56.8603 35.1748 57.5608 35.8753 57.5608 36.7407V58.1411C57.5608 59.0065 56.8603 59.707 55.9949 59.707Z" fill="black"/>
<path d="M46.5996 53.4434H19.4576C18.5922 53.4434 17.8917 52.743 17.8917 51.8775V36.7407C17.8917 35.8753 18.5922 35.1748 19.4576 35.1748C20.323 35.1748 21.0235 35.8753 21.0235 36.7407V50.3117H45.0337V36.7407C45.0337 35.8753 45.7342 35.1748 46.5996 35.1748C47.465 35.1748 48.1654 35.8753 48.1654 36.7407V51.8775C48.1654 52.743 47.465 53.4434 46.5996 53.4434Z" fill="black"/>
<path d="M9.6427 38.1751C5.93574 38.1751 1.54709 37.3681 0.347626 35.1018C0.0334055 34.5088 0 34.0004 0 33.8073C0 33.562 0.0574157 33.3187 0.169115 33.0995L9.00069 15.6765C9.26793 15.1493 9.80764 14.8184 10.3975 14.8184H55.4427C56.0283 14.8184 56.5638 15.1441 56.8332 15.6639L65.7368 32.8458C65.8516 33.0682 65.9122 33.3156 65.9122 33.5661V34.2833C65.9122 37.8368 58.7582 38.1124 56.5649 38.1124C55.0105 38.1124 50.9611 37.9725 48.7355 36.606C46.5276 37.9736 42.4584 38.1145 40.9008 38.1145C39.3538 38.1145 35.3253 37.9736 33.1069 36.6102C30.899 37.9798 26.8288 38.1208 25.2713 38.1208C23.7304 38.1208 19.728 37.9809 17.5055 36.6363C15.3039 38.032 11.2065 38.1751 9.6427 38.1751ZM3.31863 33.8125C3.97003 34.2583 6.0015 35.0423 9.6427 35.0423C13.0856 35.0423 15.2559 34.3992 15.8446 33.9889C16.1088 32.0431 18.7801 31.9971 19.0683 33.92C19.6497 34.3355 21.8221 34.989 25.2713 34.989C28.7151 34.989 30.8834 34.3606 31.4742 33.9566C31.7425 32.0211 34.4118 31.9825 34.6979 33.9086C35.2783 34.3261 37.4507 34.9827 40.9008 34.9827C44.3437 34.9827 46.5119 34.3553 47.1028 33.9524C47.3721 32.0201 50.0362 31.9804 50.3254 33.9023C50.9131 34.3219 53.0991 34.9807 56.5649 34.9807C59.9816 34.9807 62.152 34.3679 62.7804 33.9628V33.9482L54.4906 17.9501H11.36L3.31863 33.8125Z" fill="black"/>
<path d="M44.5118 17.9504H31.9847C31.1193 17.9504 30.4188 17.2499 30.4188 16.3845V8.03317C30.4188 7.16776 31.1193 6.46729 31.9847 6.46729H44.5118C45.3772 6.46729 46.0776 7.16776 46.0776 8.03317V16.3845C46.0776 17.251 45.3772 17.9504 44.5118 17.9504ZM33.5506 14.8187H42.9459V9.59905H33.5506V14.8187Z" fill="black"/>
<path d="M47.6436 9.59891H27.809C26.9436 9.59891 26.2432 8.89844 26.2432 8.03303V1.7695C26.2432 0.904084 26.9436 0.203613 27.809 0.203613H47.6436C48.509 0.203613 49.2094 0.904084 49.2094 1.7695V8.03303C49.2094 8.89948 48.509 9.59891 47.6436 9.59891ZM29.3749 6.46714H46.0777V3.33538H29.3749V6.46714Z" fill="black"/>
</svg>
