<svg width="44" height="44" viewBox="0 0 44 44" fill="none" xmlns="http://www.w3.org/2000/svg">
<path d="M17.2425 43.8897L27.1019 35.4646C27.6417 35.0031 28.3312 34.753 29.0414 34.7606L31.5255 34.622C43.172 34.622 43.5067 26.3001 43.2655 26.3001H33.8073C33.1552 26.3001 32.5205 26.2489 32.0057 25.8483L29.9422 24.4542C29.2264 23.8985 28.6444 23.1252 28.6444 22.2189V17.2819C28.6444 16.5384 29.0899 15.8219 29.5978 15.278L31.9156 12.7849C32.4706 12.1903 33.3298 11.7531 34.1433 11.7531H43.2655C43.5413 11.7531 43.7921 11.6977 43.9182 11.4572C44.0444 11.2133 44.0243 10.968 43.8663 10.7449C41.0946 6.81679 36.5983 4.58838 31.5255 4.58838C25.1798 4.58838 19.4681 8.76388 17.3097 14.9592C17.257 15.111 17.1316 15.4727 16.8454 18.6032C16.6861 20.3522 15.813 21.9958 14.4521 23.1051L2.4259 32.9258L17.2425 43.8897Z" fill="#EDC951"/>
<path d="M15.8573 41.4667C15.5635 41.4667 15.2718 41.3427 15.0667 41.1029C14.6932 40.6664 14.7452 40.0109 15.1817 39.6374L25.0405 31.213C25.7701 30.5893 26.7048 30.272 27.6666 30.2616L30.1528 30.2928C34.2333 30.2928 37.26 29.2652 39.1357 27.2377C40.1439 26.1478 40.5888 24.9864 40.7717 24.2221H32.4214C31.5518 24.2221 30.687 23.9228 29.9865 23.3782L28.0879 21.8912C27.1213 21.1401 26.5656 19.9961 26.5656 18.7551V13.8181C26.5656 12.8106 26.9314 11.8848 27.625 11.142L29.8555 8.78057C30.5685 8.01837 31.6003 7.59638 32.7574 7.59638H41.3877C38.7969 4.1533 34.7219 2.18889 30.1396 2.18889C24.2367 2.18889 18.9186 6.07128 16.9057 11.8495C16.8641 11.968 16.7421 12.5327 16.4948 15.2406C16.3098 17.266 15.2995 19.1639 13.7231 20.4492L1.69691 30.2685C1.25137 30.6316 0.597257 30.5637 0.234863 30.1209C-0.128917 29.6754 -0.0623969 29.0213 0.382454 28.6582L12.4094 18.8396C13.5561 17.9042 14.2899 16.5246 14.4243 15.0521C14.7223 11.7968 14.8546 11.4171 14.9426 11.1663C17.2459 4.55311 23.3532 0.11084 30.1396 0.11084C35.5534 0.11084 40.3608 2.52356 43.3299 6.73232C43.7089 7.26725 43.7609 8.05509 43.4553 8.64476C43.1262 9.27185 42.5088 9.67443 41.8797 9.67443H32.7574C32.35 9.67443 31.7797 9.76659 31.3709 10.2038L29.1411 12.5646C28.8127 12.9159 28.6443 13.3392 28.6443 13.8181V18.7551C28.6443 19.3503 28.9076 19.8963 29.367 20.2524L31.2656 21.7394C31.6003 21.9993 32.0119 22.1441 32.4214 22.1441H41.8797C41.9905 22.1441 42.9634 22.1808 42.9634 23.4364C42.9634 24.4356 42.488 26.6467 40.7065 28.6C38.4241 31.1021 34.8688 32.3708 30.1396 32.3708L27.6431 32.3396C27.1511 32.3486 26.7381 32.4962 26.391 32.7928L16.5322 41.2179C16.3361 41.3849 16.0956 41.4667 15.8573 41.4667Z" fill="black"/>
</svg>
