<svg width="70" height="60" viewBox="0 0 70 60" fill="none" xmlns="http://www.w3.org/2000/svg">
<path d="M36.6668 35.8367V13.5122V4.70557H5.55566V54.74H35.5557" fill="#D29965"/>
<path d="M13.3333 51.6213V54.7391H69.9999V51.6213C69.9999 48.078 68.491 44.7324 64.9499 44.7324H20.9155C17.3744 44.7324 13.3333 48.0791 13.3333 51.6213Z" fill="#EDC951"/>
<path d="M65.5556 41.1844C65.5556 39.4588 64.1578 38.061 62.4345 38.061H22.01C20.2867 38.061 18.8889 39.4588 18.8889 41.1844V41.6088C18.8889 43.3333 20.2867 44.7321 22.01 44.7321H62.4345C64.1578 44.7321 65.5556 43.3333 65.5556 41.6088V41.1844Z" fill="#EDC951"/>
<path d="M24.4443 38.0624V10.2646H32.2221V38.0624H24.4443Z" fill="white"/>
<path d="M10 38.0624V10.2646H17.7778V38.0624H10Z" fill="white"/>
<path d="M63.8888 59.7421C62.9677 59.7421 62.2222 58.9954 62.2222 58.0743V52.5154C62.2222 51.5943 62.9677 50.8477 63.8888 50.8477C64.8099 50.8477 65.5555 51.5943 65.5555 52.5154V58.0743C65.5555 58.9965 64.8099 59.7421 63.8888 59.7421Z" fill="black"/>
<path d="M11.6667 59.7421C10.7456 59.7421 10 58.9954 10 58.0743V52.5154C10 51.5943 10.7456 50.8477 11.6667 50.8477C12.5878 50.8477 13.3333 51.5943 13.3333 52.5154V58.0743C13.3333 58.9965 12.5878 59.7421 11.6667 59.7421Z" fill="black"/>
<path d="M66.1112 53.6269H9.4445C8.52339 53.6269 7.77783 52.8802 7.77783 51.9591V49.398C7.77783 44.798 12.0834 40.2847 16.4712 40.2847H60.5056C65.0578 40.2847 67.7778 44.918 67.7778 49.398V51.9591C67.7778 52.8802 67.0323 53.6269 66.1112 53.6269ZM11.1112 50.2924H64.4445V49.3991C64.4445 46.6202 62.9389 43.6213 60.5056 43.6213H16.4712C13.9667 43.6213 11.1112 46.7002 11.1112 49.3991V50.2924Z" fill="black"/>
<path d="M58.5455 43.6199H18.121C15.481 43.6199 13.3333 41.4699 13.3333 38.8288V38.4044C13.3333 35.7633 15.481 33.6133 18.121 33.6133H58.5455C61.1855 33.6133 63.3333 35.7633 63.3333 38.4044V38.8288C63.3333 41.4699 61.1855 43.6199 58.5455 43.6199ZM18.121 36.9488C17.3188 36.9488 16.6666 37.6022 16.6666 38.4044V38.8288C16.6666 39.6311 17.3188 40.2844 18.121 40.2844H58.5455C59.3477 40.2844 59.9999 39.6311 59.9999 38.8288V38.4044C59.9999 37.6022 59.3477 36.9488 58.5455 36.9488H18.121Z" fill="black"/>
<path d="M31.1111 53.6267H1.66667C0.745556 53.6267 0 52.88 0 51.9589V1.92559C0 1.00559 0.745556 0.257812 1.66667 0.257812H32.7778C33.6989 0.257812 34.4444 1.00559 34.4444 1.92559V33.6145C34.4444 34.5356 33.6989 35.2823 32.7778 35.2823C31.8567 35.2823 31.1111 34.5356 31.1111 33.6134V3.59337H3.33333V50.2923H31.1111C32.0322 50.2923 32.7778 51.04 32.7778 51.96C32.7778 52.88 32.0322 53.6267 31.1111 53.6267Z" fill="black"/>
<path d="M28.3334 36.949H20.5556C19.6345 36.949 18.8889 36.2023 18.8889 35.2812V7.48565C18.8889 6.56454 19.6345 5.81787 20.5556 5.81787H28.3334C29.2545 5.81787 30 6.56454 30 7.48565V35.2823C30 36.2034 29.2545 36.949 28.3334 36.949ZM22.2222 33.6134H26.6667V9.15343H22.2222V33.6134Z" fill="black"/>
<path d="M13.8888 36.949H6.111C5.18989 36.949 4.44434 36.2023 4.44434 35.2812V7.48565C4.44434 6.56454 5.18989 5.81787 6.111 5.81787H13.8888C14.8099 5.81787 15.5554 6.56454 15.5554 7.48565V35.2823C15.5554 36.2034 14.8099 36.949 13.8888 36.949ZM7.77767 33.6134H12.2221V9.15343H7.77767V33.6134Z" fill="black"/>
<path d="M23.3334 24.7189H22.2223C21.3012 24.7189 20.5557 23.9722 20.5557 23.0511C20.5557 22.1311 21.3012 21.3833 22.2223 21.3833H23.3334C24.2546 21.3833 25.0001 22.1311 25.0001 23.0511C25.0001 23.9722 24.2546 24.7189 23.3334 24.7189Z" fill="black"/>
<path d="M12.2221 24.7189H11.111C10.1899 24.7189 9.44434 23.9722 9.44434 23.0511C9.44434 22.1311 10.1899 21.3833 11.111 21.3833H12.2221C13.1432 21.3833 13.8888 22.1311 13.8888 23.0511C13.8888 23.9722 13.1432 24.7189 12.2221 24.7189Z" fill="black"/>
</svg>
