<svg width="64" height="41" viewBox="0 0 64 41" fill="none" xmlns="http://www.w3.org/2000/svg">
<path d="M16.6289 41C11.5043 41 7.45162 39.2458 4.47097 35.7375C1.49032 32.2292 0 27.4642 0 21.4425C0 17.2011 0.784381 13.4572 2.35314 10.2107C3.92191 6.96424 6.11817 4.45083 8.94195 2.6705C11.7657 0.890165 15.0078 0 18.6683 0C23.7929 0 27.8455 1.75415 30.8262 5.26245C33.8068 8.71839 35.2972 13.431 35.2972 19.4004C35.2972 23.6941 34.5128 27.4642 32.944 30.7107C31.4275 33.9572 29.2574 36.4968 26.4337 38.3295C23.6099 40.1098 20.3416 41 16.6289 41ZM17.9623 30.9464C21.4136 30.9464 24.1067 30.0824 26.0415 28.3544C28.0286 26.6264 29.0221 24.2439 29.0221 21.2069C29.0221 17.9604 27.9501 15.3685 25.8061 13.431C23.6622 11.4413 20.76 10.4464 17.0995 10.4464C13.7005 10.4464 11.0336 11.3365 9.09882 13.1169C7.16402 14.8448 6.19661 17.2535 6.19661 20.3429C6.19661 23.5894 7.24246 26.1814 9.33414 28.1188C11.4781 30.0038 14.3542 30.9464 17.9623 30.9464Z" fill="white" fill-opacity="0.25"/>
<path d="M40.4686 36.0517C43.1355 35.7899 44.9657 35.1616 45.9592 34.1667C46.9528 33.1718 47.4496 31.3653 47.4496 28.7471V11.7816C47.4496 9.94891 47.1619 8.74457 46.5867 8.16858C46.0115 7.59259 44.9657 7.3046 43.4492 7.3046C42.8217 7.3046 42.0635 7.35696 41.1745 7.46169C40.3378 7.56641 39.7888 7.64496 39.5273 7.69732L39.0567 7.22605L39.5273 2.74904C42.6125 2.43487 45.7501 2.04214 48.9399 1.57088C52.8095 1.04726 55.5025 0.654537 57.019 0.392724C58.5355 0.130908 59.346 0 59.4506 0L60.235 2.27778C59.2937 3.06322 58.6139 3.90102 58.1956 4.79119C57.7772 5.62899 57.4635 6.85952 57.2543 8.48276C56.7314 14.4521 56.4699 21.5734 56.4699 29.8467C56.4699 31.7842 56.7053 33.1456 57.1759 33.931C57.6988 34.6641 58.6139 35.0306 59.9212 35.0306C60.8625 35.0306 61.673 35.0045 62.3528 34.9521C63.0849 34.8997 63.5555 34.8736 63.7647 34.8736L64 35.2663L63.1372 40.3716C62.3528 40.3193 60.8625 40.2407 58.6662 40.136C56.4699 40.0837 54.2214 40.0575 51.9205 40.0575C49.6197 40.0575 47.0835 40.1884 44.312 40.4502C41.5928 40.7644 40.1025 40.9215 39.8411 40.9215L40.4686 36.0517Z" fill="white" fill-opacity="0.25"/>
</svg>
