<svg width="252" height="161" viewBox="0 0 252 161" fill="none" xmlns="http://www.w3.org/2000/svg">
<path d="M66.7075 161C53.4694 161 41.7827 157.782 31.6473 151.346C21.7187 144.91 13.962 135.879 8.37722 124.253C2.79241 112.627 0 99.2366 0 84.0812C0 68.0954 3.2061 53.7705 9.61829 41.1064C16.2373 28.2347 25.2351 18.1657 36.6115 10.8994C48.1948 3.63314 61.1227 0 75.395 0C88.2193 0 99.6992 3.21792 109.835 9.65376C119.97 15.882 127.83 24.7053 133.415 36.1238C139 47.5422 141.792 60.6215 141.792 75.3617C141.792 91.5551 138.483 106.191 131.864 119.271C125.451 132.35 116.557 142.627 105.181 150.101C93.8041 157.367 80.9798 161 66.7075 161ZM72.2923 137.333C87.8056 137.333 100.32 132.454 109.835 122.696C119.556 112.731 124.417 99.8594 124.417 84.0812C124.417 72.6628 122.038 62.49 117.281 53.5629C112.524 44.6357 105.905 37.6808 97.4239 32.6982C89.1501 27.7157 79.6353 25.2244 68.8793 25.2244C53.366 25.2244 40.8519 30.207 31.337 40.1721C22.029 49.9297 17.375 63.009 17.375 79.4101C17.375 90.6209 19.6503 100.69 24.2008 109.617C28.9583 118.337 35.4739 125.188 43.7477 130.17C52.0215 134.945 61.5363 137.333 72.2923 137.333Z" fill="#817B74" fill-opacity="0.75"/>
<path d="M170.71 146.675C178.57 146.052 184.465 144.703 188.395 142.627C192.325 140.551 195.014 137.125 196.462 132.35C197.91 127.575 198.634 120.516 198.634 111.174V40.1721C198.634 32.9059 197.29 28.1309 194.601 25.8472C192.118 23.5635 187.878 22.4217 181.88 22.4217C179.191 22.4217 175.985 22.7331 172.261 23.3559C168.745 23.7711 166.47 24.0825 165.435 24.2901L164.505 23.3559L165.746 10.2766C167.814 10.069 171.951 9.54996 178.156 8.71953C184.569 7.88909 191.808 6.85105 199.875 5.60541C216.423 2.90651 225.731 1.34945 227.799 0.934224C229.868 0.311408 231.005 0 231.212 0L233.074 5.29399C228.937 8.82333 226.041 12.3527 224.386 15.882C222.938 19.2037 222.008 24.3939 221.594 31.4526C220.353 64.4623 219.732 94.773 219.732 122.385C219.732 130.689 220.766 136.295 222.835 139.201C224.903 142.108 228.937 143.561 234.935 143.561C238.659 143.561 242.071 143.457 245.174 143.25C248.277 143.042 250.345 142.834 251.379 142.627L252 143.872L249.208 158.197C246.312 157.99 240.83 157.782 232.763 157.574C224.696 157.367 216.423 157.263 207.942 157.263C201.323 157.263 193.773 157.782 185.293 158.82C176.812 159.858 171.331 160.585 168.848 161L170.71 146.675Z" fill="#817B74" fill-opacity="0.75"/>
</svg>
