<svg width="76" height="42" viewBox="0 0 76 42" fill="none" xmlns="http://www.w3.org/2000/svg">
<path d="M17.12 41.96C11.8933 41.96 7.76 40.1733 4.72 36.6C1.68 33.0267 0.16 28.1733 0.16 22.04C0.16 17.72 0.96 13.9067 2.56 10.6C4.16 7.29333 6.4 4.73333 9.28 2.92C12.16 1.10666 15.4667 0.199996 19.2 0.199996C24.4267 0.199996 28.56 1.98666 31.6 5.56C34.64 9.08 36.16 13.88 36.16 19.96C36.16 24.3333 35.36 28.1733 33.76 31.48C32.2133 34.7867 30 37.3733 27.12 39.24C24.24 41.0533 20.9067 41.96 17.12 41.96ZM18.48 31.72C22 31.72 24.7467 30.84 26.72 29.08C28.7467 27.32 29.76 24.8933 29.76 21.8C29.76 18.4933 28.6667 15.8533 26.48 13.88C24.2933 11.8533 21.3333 10.84 17.6 10.84C14.1333 10.84 11.4133 11.7467 9.44 13.56C7.46667 15.32 6.48 17.7733 6.48 20.92C6.48 24.2267 7.54667 26.8667 9.68 28.84C11.8667 30.76 14.8 31.72 18.48 31.72ZM45.5144 32.52C49.781 27.6133 52.821 23.6933 54.6344 20.76C56.501 17.8267 57.4344 15.4 57.4344 13.48C57.4344 11.88 56.981 10.6533 56.0744 9.8C55.221 8.94667 53.9944 8.52 52.3944 8.52C50.7944 8.52 49.1944 9.08 47.5944 10.2C46.0477 11.2667 44.6344 12.76 43.3544 14.68H42.3144L40.9544 9C42.981 6.28 45.3544 4.14666 48.0744 2.6C50.7944 0.999997 53.5677 0.199996 56.3944 0.199996C60.1277 0.199996 63.1144 1.16 65.3544 3.08C67.6477 4.94667 68.7944 7.42667 68.7944 10.52C68.7944 12.2267 68.341 14.0133 67.4344 15.88C66.581 17.6933 65.0877 19.9333 62.9544 22.6C60.821 25.2133 57.7544 28.7067 53.7544 33.08L54.0744 33.72H61.9944C64.501 33.72 66.261 33.24 67.2744 32.28C68.341 31.2667 69.1677 29.32 69.7544 26.44L75.6744 25.88C75.461 26.84 75.0877 28.8933 74.5544 32.04C74.021 35.1867 73.6477 38.0933 73.4344 40.76L72.3144 41.72C70.181 41.6667 65.9144 41.5333 59.5144 41.32C53.1144 41.1067 48.341 41 45.1944 41L40.0744 41.72L39.5144 39.16L45.5144 32.52Z" fill="#574F46" fill-opacity="0.25"/>
</svg>
