<svg width="305" height="166" viewBox="0 0 305 166" fill="none" xmlns="http://www.w3.org/2000/svg">
<path d="M69.1571 166C55.4329 166 43.317 162.682 32.8094 156.046C22.5163 149.411 14.4747 140.099 8.68485 128.112C2.89495 116.125 0 102.318 0 86.6925C0 70.2102 3.32383 55.4404 9.97149 42.383C16.8336 29.1115 26.1618 18.7298 37.956 11.2379C49.9647 3.74597 63.3672 0 78.1636 0C91.459 0 103.36 3.31786 113.868 9.95357C124.376 16.3752 132.524 25.4726 138.314 37.2456C144.104 49.0187 146.999 62.5042 146.999 77.7021C146.999 94.3985 143.568 109.489 136.706 122.975C130.058 136.46 120.837 147.056 109.043 154.762C97.2489 162.254 83.9535 166 69.1571 166ZM74.947 141.598C91.0301 141.598 104.004 136.567 113.868 126.507C123.947 116.232 128.986 102.961 128.986 86.6925C128.986 74.9194 126.52 64.4307 121.588 55.2263C116.656 46.0219 109.794 38.8511 101.002 33.7137C92.424 28.5764 82.5597 26.0077 71.4088 26.0077C55.3257 26.0077 42.352 31.1451 32.4878 41.4197C22.8379 51.4803 18.013 64.9658 18.013 81.8762C18.013 93.4352 20.3719 103.817 25.0896 113.021C30.0217 122.012 36.7766 129.075 45.3542 134.213C53.9318 139.136 63.7961 141.598 74.947 141.598Z" fill="#817B74" fill-opacity="0.75"/>
<path d="M193.384 131.965C211.397 111.63 224.585 94.5055 232.948 80.5919C241.526 66.4642 245.814 54.9052 245.814 45.9149C245.814 38.2089 243.67 32.2153 239.381 27.9342C235.092 23.6531 229.195 21.5126 221.69 21.5126C214.399 21.5126 207.215 24.0812 200.139 29.2186C193.062 34.3559 187.058 41.3127 182.125 50.089H179.231L175.692 35.6402C181.053 25.3656 188.88 16.9104 199.174 10.2747C209.467 3.42488 219.76 0 230.053 0C243.348 0 253.963 3.53191 261.897 10.5957C270.046 17.6596 274.121 26.971 274.121 38.53C274.121 44.9516 271.976 52.3365 267.687 60.6847C263.613 68.8188 256.751 79.0935 247.101 91.5087C237.451 103.924 223.62 120.192 205.607 140.313L206.893 142.561H256.108C264.256 142.561 270.475 141.812 274.764 140.313C279.053 138.815 282.484 136.032 285.057 131.965C287.63 127.898 289.989 121.691 292.134 113.342L305 111.737C304.142 114.734 302.641 121.476 300.497 131.965C298.352 142.24 296.744 152.3 295.672 162.147L291.812 164.395C283.663 164.181 267.258 163.752 242.598 163.11C218.152 162.468 200.139 162.147 188.559 162.147L171.189 166L167.972 160.221L193.384 131.965Z" fill="#817B74" fill-opacity="0.75"/>
</svg>
