<svg width="70" height="49" viewBox="0 0 70 49" fill="none" xmlns="http://www.w3.org/2000/svg">
<path d="M17.3153 41.96C12.0886 41.96 7.95531 40.1733 4.91531 36.6C1.87531 33.0267 0.355313 28.1733 0.355313 22.04C0.355313 17.72 1.15531 13.9067 2.75531 10.6C4.35531 7.29333 6.59531 4.73333 9.47531 2.92C12.3553 1.10666 15.662 0.199996 19.3953 0.199996C24.622 0.199996 28.7553 1.98666 31.7953 5.56C34.8353 9.08 36.3553 13.88 36.3553 19.96C36.3553 24.3333 35.5553 28.1733 33.9553 31.48C32.4086 34.7867 30.1953 37.3733 27.3153 39.24C24.4353 41.0533 21.102 41.96 17.3153 41.96ZM18.6753 31.72C22.1953 31.72 24.942 30.84 26.9153 29.08C28.942 27.32 29.9553 24.8933 29.9553 21.8C29.9553 18.4933 28.862 15.8533 26.6753 13.88C24.4886 11.8533 21.5286 10.84 17.7953 10.84C14.3286 10.84 11.6086 11.7467 9.63531 13.56C7.66198 15.32 6.67531 17.7733 6.67531 20.92C6.67531 24.2267 7.74198 26.8667 9.87531 28.84C12.062 30.76 14.9953 31.72 18.6753 31.72ZM45.8697 49C43.6297 49 42.0564 48.3867 41.1497 47.16C40.243 45.9867 39.7097 43.9333 39.5497 41L40.5097 39.88C42.5364 40.5733 44.8297 40.92 47.3897 40.92C50.803 40.92 53.603 40.2 55.7897 38.76C58.0297 37.2667 59.1497 35.4 59.1497 33.16C59.1497 30.92 58.1897 29.2933 56.2697 28.28C54.3497 27.2133 51.3364 26.6533 47.2297 26.6L46.5097 25.88L45.9497 21.08L51.1497 19.88C52.963 19.08 54.4297 17.9867 55.5497 16.6C56.6697 15.2133 57.2297 13.7467 57.2297 12.2C57.2297 10.8667 56.7497 9.8 55.7897 9C54.883 8.14667 53.683 7.72 52.1897 7.72C50.8564 7.72 49.3897 8.09333 47.7897 8.84C46.243 9.53333 44.803 10.4933 43.4697 11.72H42.4297L40.9097 6.2C42.403 4.97333 44.6164 3.66666 47.5497 2.28C50.5364 0.89333 53.2297 0.199996 55.6297 0.199996C59.1497 0.199996 61.9764 1.05333 64.1097 2.76C66.2964 4.46667 67.3897 6.73333 67.3897 9.56C67.3897 11.7467 66.5897 13.8267 64.9897 15.8C63.3897 17.7733 61.2564 19.3467 58.5897 20.52V21.08C62.2164 22.04 64.963 23.4267 66.8297 25.24C68.6964 27 69.6297 29.1333 69.6297 31.64C69.6297 34.36 68.4564 37.08 66.1097 39.8C63.763 42.52 60.7497 44.7333 57.0697 46.44C53.3897 48.1467 49.6564 49 45.8697 49Z" fill="white" fill-opacity="0.25"/>
</svg>
