<svg width="268" height="190" viewBox="0 0 268 190" fill="none" xmlns="http://www.w3.org/2000/svg">
<path d="M67.3758 161.033C54.0051 161.033 42.2013 157.814 31.9643 151.377C21.9363 144.94 14.1019 135.907 8.46115 124.279C2.82038 112.65 0 99.2568 0 84.0984C0 68.1093 3.23822 53.7814 9.71465 41.1147C16.4 28.2404 25.4879 18.1694 36.9784 10.9016C48.6777 3.63388 61.7351 0 76.1503 0C89.1032 0 100.698 3.21858 110.935 9.65573C121.172 15.8852 129.111 24.7104 134.752 36.1311C140.392 47.5519 143.213 60.6339 143.213 75.377C143.213 91.5738 139.87 106.213 133.185 119.295C126.708 132.377 117.725 142.656 106.234 150.131C94.744 157.399 81.7911 161.033 67.3758 161.033ZM73.0166 137.361C88.6854 137.361 101.325 132.481 110.935 122.721C120.754 112.754 125.664 99.8798 125.664 84.0984C125.664 72.6776 123.261 62.5027 118.456 53.5738C113.651 44.6448 106.966 37.6885 98.4 32.7049C90.0433 27.7213 80.4331 25.2295 69.5694 25.2295C53.9006 25.2295 41.2612 30.2131 31.651 40.1803C22.2497 49.9399 17.549 63.0219 17.549 79.4262C17.549 90.6393 19.8471 100.71 24.4433 109.639C29.2484 118.361 35.8293 125.213 44.186 130.197C52.5427 134.973 62.1529 137.361 73.0166 137.361Z" fill="#817B74"/>
<path d="M182.448 190C175.345 190 170.227 188.235 167.093 184.705C164.168 181.175 162.601 175.361 162.392 167.262L163.959 165.393C172.734 167.262 181.09 168.197 189.029 168.197C199.266 168.197 208.563 166.328 216.92 162.59C225.485 159.06 232.171 154.18 236.976 147.951C241.99 141.514 244.497 134.454 244.497 126.771C244.497 116.18 239.901 108.393 230.708 103.41C221.725 98.2186 207.623 95.5191 188.403 95.3115L186.836 93.7541L185.269 82.8525L205.638 77.8689C213.995 73.9235 220.785 68.6284 226.008 61.9836C231.439 55.1311 234.155 48.2787 234.155 41.4262C234.155 34.9891 231.857 29.7978 227.261 25.8525C222.665 21.6994 216.815 19.6229 209.712 19.6229C203.862 19.6229 197.595 21.0765 190.91 23.9836C184.433 26.8907 178.792 30.7322 173.987 35.5082H170.854L167.72 22.4262C167.72 22.2186 170.749 20.1421 176.808 16.1967C183.075 12.0437 189.969 8.306 197.49 4.9836C205.22 1.6612 212.532 0 219.427 0C231.753 0 241.572 3.21858 248.884 9.65573C256.405 15.8852 260.166 24.2951 260.166 34.8852C260.166 43.1913 257.032 51.2896 250.764 59.1803C244.497 67.071 236.14 73.7158 225.694 79.1147V80.6721C253.898 87.1093 268 99.9836 268 119.295C268 130.093 263.613 140.995 254.838 152C246.273 163.005 235.304 172.038 221.934 179.098C208.563 186.366 195.401 190 182.448 190Z" fill="#817B74"/>
</svg>
