<svg width="75" height="49" viewBox="0 0 75 49" fill="none" xmlns="http://www.w3.org/2000/svg">
<path d="M17.12 41.96C11.8933 41.96 7.76 40.1733 4.72 36.6C1.68 33.0267 0.16 28.1733 0.16 22.04C0.16 17.72 0.96 13.9067 2.56 10.6C4.16 7.29333 6.4 4.73333 9.28 2.92C12.16 1.10666 15.4667 0.199996 19.2 0.199996C24.4267 0.199996 28.56 1.98666 31.6 5.56C34.64 9.08 36.16 13.88 36.16 19.96C36.16 24.3333 35.36 28.1733 33.76 31.48C32.2133 34.7867 30 37.3733 27.12 39.24C24.24 41.0533 20.9067 41.96 17.12 41.96ZM18.48 31.72C22 31.72 24.7467 30.84 26.72 29.08C28.7467 27.32 29.76 24.8933 29.76 21.8C29.76 18.4933 28.6667 15.8533 26.48 13.88C24.2933 11.8533 21.3333 10.84 17.6 10.84C14.1333 10.84 11.4133 11.7467 9.44 13.56C7.46667 15.32 6.48 17.7733 6.48 20.92C6.48 24.2267 7.54667 26.8667 9.68 28.84C11.8667 30.76 14.8 31.72 18.48 31.72ZM57.5144 48.2C57.5677 47.4 57.6477 45.6667 57.7544 43C57.861 40.3333 57.941 37.8 57.9944 35.4C49.6744 35.1867 43.2744 35.08 38.7944 35.08L39.0344 29.88L60.3144 0.359999L60.7944 0.199996L67.2744 1.08V28.44H73.8344L74.4744 29.4L73.7544 35.88L67.2744 35.64C67.381 38.52 67.4877 41.0267 67.5944 43.16C67.701 45.2933 67.781 46.7067 67.8344 47.4L67.1944 48.04L58.1544 49L57.5144 48.2ZM58.0744 28.44V14.04H57.2744L47.1144 28.44H58.0744Z" fill="#574F46" fill-opacity="0.25"/>
</svg>
