<svg width="70" height="52" viewBox="0 0 70 52" fill="none" xmlns="http://www.w3.org/2000/svg">
<path d="M17.4325 44.96C12.2058 44.96 8.0725 43.1733 5.0325 39.6C1.9925 36.0267 0.4725 31.1733 0.4725 25.04C0.4725 20.72 1.2725 16.9067 2.8725 13.6C4.4725 10.2933 6.7125 7.73333 9.5925 5.92C12.4725 4.10666 15.7792 3.2 19.5125 3.2C24.7392 3.2 28.8725 4.98666 31.9125 8.56C34.9525 12.08 36.4725 16.88 36.4725 22.96C36.4725 27.3333 35.6725 31.1733 34.0725 34.48C32.5258 37.7867 30.3125 40.3733 27.4325 42.24C24.5525 44.0533 21.2192 44.96 17.4325 44.96ZM18.7925 34.72C22.3125 34.72 25.0592 33.84 27.0325 32.08C29.0592 30.32 30.0725 27.8933 30.0725 24.8C30.0725 21.4933 28.9792 18.8533 26.7925 16.88C24.6058 14.8533 21.6458 13.84 17.9125 13.84C14.4458 13.84 11.7258 14.7467 9.7525 16.56C7.77917 18.32 6.7925 20.7733 6.7925 23.92C6.7925 27.2267 7.85917 29.8667 9.9925 31.84C12.1792 33.76 15.1125 34.72 18.7925 34.72ZM45.0269 52C42.9469 52 41.4002 51.4133 40.3869 50.24C39.4269 49.0667 38.8669 46.9867 38.7069 44L39.6669 42.88C41.8002 43.5733 44.0935 43.92 46.5469 43.92C50.0669 43.92 52.9735 43.2 55.2669 41.76C57.6135 40.2667 58.7869 38.3733 58.7869 36.08C58.7869 33.9467 57.6669 32.2933 55.4269 31.12C53.1869 29.8933 49.2402 28.88 43.5869 28.08L42.8669 27.2C43.2935 22.88 43.6402 18.5333 43.9069 14.16C44.1735 9.78667 44.3335 6.96 44.3869 5.68L45.0269 5.04L60.5469 4.48C62.0935 4.37333 63.2135 4.10667 63.9069 3.68C64.6002 3.25333 65.1602 2.45333 65.5869 1.28L69.8269 0.959996L67.7469 12.64L66.7869 13.52C65.9335 13.4667 63.9335 13.36 60.7869 13.2C57.6935 12.9867 54.3335 12.88 50.7069 12.88L50.1469 20.24C56.5469 21.52 61.2935 23.1733 64.3869 25.2C67.5335 27.2267 69.1069 30.0267 69.1069 33.6C69.1069 36.64 67.8802 39.6 65.4269 42.48C63.0269 45.3067 59.9335 47.6 56.1469 49.36C52.4135 51.12 48.7069 52 45.0269 52Z" fill="white" fill-opacity="0.25"/>
</svg>
