<svg width="9" height="17" viewBox="0 0 9 17" fill="none" xmlns="http://www.w3.org/2000/svg">
<path d="M0.196439 1.16807C0.0705723 1.03916 1.41053e-06 0.865363 1.42637e-06 0.684283C1.4422e-06 0.503202 0.0705724 0.329404 0.196439 0.200496C0.258334 0.136995 0.332109 0.0865662 0.413474 0.0521462C0.494838 0.0177262 0.582164 -7.35911e-07 0.670373 -7.28199e-07C0.758583 -7.20488e-07 0.845911 0.0177262 0.927275 0.0521462C1.00864 0.0865662 1.08242 0.136995 1.14431 0.200496L8.80356 8.01621C8.92943 8.14512 9 8.31892 9 8.5C9 8.68108 8.92943 8.85488 8.80356 8.98379L1.14431 16.7995C1.08241 16.863 1.00864 16.9134 0.927274 16.9479C0.845909 16.9823 0.758581 17 0.670372 17C0.582163 17 0.494837 16.9823 0.413472 16.9479C0.332108 16.9134 0.258332 16.863 0.196438 16.7995C0.070571 16.6706 4.39914e-08 16.4968 5.9822e-08 16.3157C7.56525e-08 16.1346 0.070571 15.9608 0.196438 15.8319L7.18172 8.49951L0.196439 1.16807Z" fill="white"/>
</svg>
