<svg width="29" height="16" viewBox="0 0 29 16" fill="none" xmlns="http://www.w3.org/2000/svg">
<path d="M26.9473 0.589304C27.1661 0.375622 27.4612 0.255816 27.7686 0.255816C28.076 0.255816 28.3711 0.375622 28.5899 0.589304C28.6977 0.694379 28.7833 0.819627 28.8418 0.957757C28.9002 1.09589 28.9303 1.24414 28.9303 1.39389C28.9303 1.54364 28.9002 1.69189 28.8418 1.83002C28.7833 1.96815 28.6977 2.0934 28.5899 2.19848L15.3214 15.2014C15.1025 15.4151 14.8075 15.5349 14.5001 15.5349C14.1926 15.5349 13.8976 15.4151 13.6787 15.2014L0.410202 2.19847C0.3024 2.0934 0.21679 1.96815 0.158355 1.83002C0.0999194 1.69189 0.0698261 1.54364 0.0698261 1.39389C0.0698261 1.24414 0.0999195 1.09588 0.158355 0.957753C0.21679 0.819623 0.3024 0.694375 0.410203 0.5893C0.629047 0.375618 0.924101 0.255813 1.23152 0.255813C1.53893 0.255813 1.83399 0.375618 2.05283 0.5893L14.5009 12.448L26.9473 0.589304Z" fill="white"/>
</svg>
