<svg width="39" height="38" viewBox="0 0 39 38" fill="none" xmlns="http://www.w3.org/2000/svg">
<path fill-rule="evenodd" clip-rule="evenodd" d="M38.5362 20.4823C38.5362 30.0986 30.7486 37.8942 21.1426 37.8942C11.5358 37.8942 3.74902 30.0986 3.74902 20.4823C3.74902 10.866 11.5358 3.07031 21.1426 3.07031C30.7486 3.07031 38.5362 10.866 38.5362 20.4823Z" fill="#EDC951"/>
<path fill-rule="evenodd" clip-rule="evenodd" d="M30.976 20.4816C30.976 25.9182 26.5728 30.3256 21.1423 30.3256C15.7112 30.3256 11.3086 25.9182 11.3086 20.4816C11.3086 15.045 15.7112 10.6377 21.1423 10.6377C26.5728 10.6377 30.976 15.045 30.976 20.4816Z" fill="white"/>
<path fill-rule="evenodd" clip-rule="evenodd" d="M18.416 36.8702C8.26123 36.8702 0 28.6001 0 18.4351C0 8.26941 8.26123 0 18.416 0C28.5708 0 36.832 8.26941 36.832 18.4351C36.832 28.6001 28.5708 36.8702 18.416 36.8702ZM18.416 2.0469C9.38863 2.0469 2.04486 9.39817 2.04486 18.4351C2.04486 27.4713 9.38863 34.8233 18.416 34.8233C27.4427 34.8233 34.7871 27.4713 34.7871 18.4351C34.7871 9.39817 27.4427 2.0469 18.416 2.0469Z" fill="black"/>
<path fill-rule="evenodd" clip-rule="evenodd" d="M18.4157 29.3029C12.4297 29.3029 7.55957 24.4279 7.55957 18.4351C7.55957 12.443 12.4297 7.56738 18.4157 7.56738C24.4017 7.56738 29.2719 12.443 29.2719 18.4351C29.2719 24.4279 24.4017 29.3029 18.4157 29.3029ZM18.4157 9.61429C13.5571 9.61429 9.60443 13.5718 9.60443 18.4351C9.60443 23.2992 13.5571 27.256 18.4157 27.256C23.2743 27.256 27.227 23.2992 27.227 18.4351C27.227 13.5718 23.2743 9.61429 18.4157 9.61429Z" fill="black"/>
<path fill-rule="evenodd" clip-rule="evenodd" d="M22.9038 22.682C22.7375 22.682 22.5678 22.6418 22.4117 22.5559L17.262 19.7177C16.9355 19.5377 16.7324 19.1942 16.7324 18.8206V13.9225C16.7324 13.3575 17.1905 12.8994 17.7549 12.8994C18.3199 12.8994 18.7773 13.3575 18.7773 13.9225V18.216L23.398 20.7619C23.8928 21.0352 24.0728 21.6575 23.8008 22.1524C23.6147 22.4912 23.2644 22.682 22.9038 22.682Z" fill="black"/>
</svg>
