<svg width="23" height="22" viewBox="0 0 23 22" fill="none" xmlns="http://www.w3.org/2000/svg">
<path d="M16.675 0.397461C14.674 0.397461 12.7535 1.32255 11.5 2.78441C10.2465 1.32255 8.326 0.397461 6.325 0.397461C2.783 0.397461 0 3.1613 0 6.67891C0 10.996 3.91 14.5136 9.8325 19.8585L11.5 21.3547L13.1675 19.8471C19.09 14.5136 23 10.996 23 6.67891C23 3.1613 20.217 0.397461 16.675 0.397461ZM11.615 18.1568L11.5 18.2711L11.385 18.1568C5.911 13.2345 2.3 9.97953 2.3 6.67891C2.3 4.39475 4.025 2.68163 6.325 2.68163C8.096 2.68163 9.821 3.81229 10.4305 5.37694H12.581C13.179 3.81229 14.904 2.68163 16.675 2.68163C18.975 2.68163 20.7 4.39475 20.7 6.67891C20.7 9.97953 17.089 13.2345 11.615 18.1568Z" fill="#D29965"/>
</svg>
