<svg width="44" height="34" viewBox="0 0 44 34" fill="none" xmlns="http://www.w3.org/2000/svg">
<path fill-rule="evenodd" clip-rule="evenodd" d="M37.9605 13.6328V33.3998H7.96924V13.6328" fill="#EDC951"/>
<path fill-rule="evenodd" clip-rule="evenodd" d="M43.4138 14.5895L38.2458 3.4082H8.83456L3.06738 14.766C3.06738 14.766 3.06738 14.918 3.17576 15.1225C3.58541 15.8962 5.5478 16.5805 8.34107 16.5805C11.1343 16.5805 13.3987 15.9561 13.3987 15.0803C13.3987 14.8764 13.4887 14.8294 13.4887 15.0332C13.4887 15.9091 15.7523 16.5416 18.5463 16.5416C21.3396 16.5416 23.6039 15.937 23.6039 15.0612C23.6039 14.8574 23.6932 14.8199 23.6932 15.0237C23.6932 15.8996 25.9575 16.5369 28.7508 16.5369C31.5441 16.5369 33.8084 15.9343 33.8084 15.0584C33.8084 14.8546 33.8977 14.8185 33.8977 15.0223C33.8977 15.8982 35.8628 16.5362 38.6561 16.5362C41.4494 16.5362 43.4138 15.9336 43.4138 15.0584C43.4138 14.8546 43.4138 14.5895 43.4138 14.5895Z" fill="#D29965"/>
<path fill-rule="evenodd" clip-rule="evenodd" d="M32.5076 33.3991H26.373V24.5381H32.5076V33.3991Z" fill="white"/>
<path fill-rule="evenodd" clip-rule="evenodd" d="M20.2386 33.3991H14.104V24.5381H20.2386V33.3991Z" fill="white"/>
<path fill-rule="evenodd" clip-rule="evenodd" d="M30.8035 32.0358H24.6689C24.1045 32.0358 23.6465 31.5784 23.6465 31.0134V22.1523C23.6465 21.5872 24.1045 21.1299 24.6689 21.1299H30.8035C31.3686 21.1299 31.8259 21.5872 31.8259 22.1523V31.0134C31.8259 31.5784 31.3686 32.0358 30.8035 32.0358ZM25.6913 29.9909H29.7811V23.1747H25.6913V29.9909Z" fill="black"/>
<path fill-rule="evenodd" clip-rule="evenodd" d="M18.5344 32.0358H12.3999C11.8355 32.0358 11.3774 31.5784 11.3774 31.0134V22.1523C11.3774 21.5872 11.8355 21.1299 12.3999 21.1299H18.5344C19.0995 21.1299 19.5569 21.5872 19.5569 22.1523V31.0134C19.5569 31.5784 19.0995 32.0358 18.5344 32.0358ZM13.4223 29.9909H17.512V23.1747H13.4223V29.9909Z" fill="black"/>
<path fill-rule="evenodd" clip-rule="evenodd" d="M36.2568 32.0365H6.26559C5.70121 32.0365 5.24316 31.5792 5.24316 31.0141V14.9961C5.24316 14.431 5.70121 13.9736 6.26559 13.9736C6.83066 13.9736 7.28802 14.431 7.28802 14.9961V29.9917H35.2344V14.9961C35.2344 14.431 35.6925 13.9736 36.2568 13.9736C36.8219 13.9736 37.2793 14.431 37.2793 14.9961V31.0141C37.2793 31.5792 36.8219 32.0365 36.2568 32.0365Z" fill="black"/>
<path fill-rule="evenodd" clip-rule="evenodd" d="M6.29612 15.515C3.267 15.515 0.88406 14.7121 0.226979 13.4708C0.0163589 13.0728 0 12.6659 0 12.5507C0 12.3918 0.0368074 12.2351 0.108377 12.0933L5.87488 0.565062C6.04801 0.2188 6.40245 0 6.78961 0H36.2008C36.5948 0 36.9533 0.226298 37.1237 0.581421L42.6326 12.1035C42.698 12.2412 42.7321 12.3918 42.7321 12.5445V13.0135C42.7321 15.2696 38.5708 15.5137 36.7815 15.5137C35.7946 15.5137 33.2283 15.4216 31.8091 14.5369C30.3641 15.4223 27.7194 15.5137 26.7058 15.5137C25.6943 15.5137 23.0626 15.4216 21.6148 14.5301C20.1725 15.4223 17.5176 15.5137 16.5013 15.5137C15.4905 15.5137 12.8581 15.4216 11.411 14.5308C9.96868 15.423 7.3131 15.515 6.29612 15.515ZM2.1287 12.6243C2.49132 12.8867 3.85865 13.4702 6.29612 13.4702C8.5441 13.4702 9.95982 13.0605 10.3463 12.7974C10.5222 11.535 12.2644 11.5098 12.4511 12.7667C12.8301 13.0394 14.2486 13.4688 16.5013 13.4688C18.7486 13.4688 20.165 13.0598 20.5508 12.7967C20.7267 11.5344 22.4689 11.5098 22.6557 12.7667C23.0353 13.0394 24.4538 13.4688 26.7058 13.4688C28.9538 13.4688 30.3696 13.0591 30.756 12.7967C30.9319 11.5289 32.6898 11.5091 32.8622 12.7831C33.199 13.0312 34.4749 13.4688 36.7815 13.4688C39.0547 13.4688 40.3266 13.0619 40.6872 12.8213V12.7763L35.5567 2.04486H7.42079L2.1287 12.6243Z" fill="black"/>
<path fill-rule="evenodd" clip-rule="evenodd" d="M27.7364 19.0849H15.4673C14.9029 19.0849 14.4448 18.6275 14.4448 18.0625C14.4448 17.4974 14.9029 17.04 15.4673 17.04H27.7364C28.3015 17.04 28.7588 17.4974 28.7588 18.0625C28.7588 18.6275 28.3015 19.0849 27.7364 19.0849Z" fill="black"/>
</svg>
