<svg width="11" height="18" viewBox="0 0 11 18" fill="none" xmlns="http://www.w3.org/2000/svg">
<path d="M6.91539 13.3264C7.8408 13.1194 8.72402 12.7619 9.52816 12.2688C9.81164 12.0818 10.0096 11.7945 10.0801 11.4675C10.1506 11.1405 10.0882 10.7995 9.90596 10.5167C9.72376 10.2338 9.43611 10.0314 9.10386 9.95209C8.77162 9.8728 8.42083 9.92291 8.12572 10.0918C7.21776 10.6457 6.1689 10.9393 5.09853 10.9393C4.02817 10.9393 2.97931 10.6457 2.07135 10.0918C1.77659 9.91024 1.42019 9.8502 1.08022 9.92485C0.740241 9.9995 0.4444 10.2028 0.257486 10.4901V10.4928C0.16514 10.6354 0.102521 10.7945 0.0732199 10.9609C0.0439182 11.1273 0.0485093 11.2977 0.08673 11.4623C0.124951 11.627 0.196049 11.7826 0.295951 11.9204C0.395853 12.0581 0.522595 12.1753 0.668911 12.2651L0.671088 12.2677C1.47315 12.7609 2.35491 13.1178 3.27896 13.3232L0.764692 15.7794C0.518512 16.0155 0.378202 16.3373 0.374529 16.6743C0.370856 17.0113 0.504122 17.336 0.745101 17.5772L0.767413 17.599C1.01721 17.8505 1.35462 17.9755 1.69203 17.9755C2.02944 17.9755 2.36631 17.8505 2.61556 17.599L5.09881 15.1865L7.56736 17.6022C8.09198 18.0919 8.92517 18.0808 9.4302 17.5687C9.66721 17.329 9.79969 17.0087 9.79969 16.6754C9.79969 16.342 9.66721 16.0217 9.4302 15.782L6.91539 13.3264ZM5.09826 9.743C6.28987 9.74229 7.43249 9.27961 8.27528 8.45652C9.11808 7.63343 9.59216 6.51721 9.59346 5.35291C9.59346 2.9324 7.57552 0.960693 5.09826 0.960693C2.621 0.960693 0.603061 2.9324 0.603061 5.35291C0.604357 6.51746 1.07836 7.63395 1.92107 8.45746C2.76379 9.28097 3.90641 9.74425 5.09826 9.74565V9.743ZM5.09826 3.53647C5.59122 3.53675 6.0639 3.72821 6.41248 4.0688C6.76105 4.40939 6.95701 4.87124 6.95729 5.35291C6.95715 5.83496 6.76137 6.29728 6.41287 6.63849C6.06437 6.9797 5.59161 7.17194 5.09826 7.17307C4.6047 7.17181 4.13175 6.9796 3.78285 6.6385C3.43395 6.29739 3.23751 5.83516 3.23651 5.35291C3.23823 4.87097 3.43493 4.40925 3.7837 4.06847C4.13248 3.72768 4.60502 3.53549 5.09826 3.53381V3.53647Z" fill="#574F46"/>
</svg>
