<svg width="40" height="39" viewBox="0 0 40 39" fill="none" xmlns="http://www.w3.org/2000/svg">
<path fill-rule="evenodd" clip-rule="evenodd" d="M30.2912 14.8325C29.7984 14.8325 29.3984 14.4331 29.3984 13.9397C29.3984 10.8143 26.8557 8.27096 23.7297 8.27096C23.2369 8.27096 22.8369 7.87158 22.8369 7.37816C22.8369 6.88533 23.2369 6.48535 23.7297 6.48535C27.8402 6.48535 31.184 9.8292 31.184 13.9397C31.184 14.4331 30.7847 14.8325 30.2912 14.8325Z" fill="black"/>
<path fill-rule="evenodd" clip-rule="evenodd" d="M33.791 14.3948C33.2982 14.3948 32.8982 13.9954 32.8982 13.502C32.8982 8.68799 28.9818 4.77096 24.1672 4.77096C23.6744 4.77096 23.2744 4.37158 23.2744 3.87816C23.2744 3.38533 23.6744 2.98535 24.1672 2.98535C29.9663 2.98535 34.6838 7.70352 34.6838 13.502C34.6838 13.9954 34.2845 14.3948 33.791 14.3948Z" fill="black"/>
<path fill-rule="evenodd" clip-rule="evenodd" d="M32.0955 23.6566L28.2112 27.5409L21.2515 20.5812L14.2918 13.6215L18.1761 9.73784C19.1058 8.80813 19.1058 7.30049 18.1761 6.37078L14.5835 2.77814C13.6579 1.8526 12.1425 1.8526 11.2164 2.77814L4.668 9.32715C2.80858 11.1866 2.80858 14.2013 4.668 16.0607L15.2203 26.613L25.3084 36.7011C27.1678 38.5605 30.1825 38.5605 32.042 36.7011L38.591 30.1521C39.5207 29.2224 39.5207 27.7153 38.591 26.7856L35.4626 23.6566C34.5329 22.7269 33.0252 22.7269 32.0955 23.6566Z" fill="#D29965"/>
<path fill-rule="evenodd" clip-rule="evenodd" d="M26.2949 37.7983C24.7842 37.7983 23.3641 37.2097 22.2963 36.1419L1.65585 15.5015C0.58806 14.4337 0 13.0135 0 11.5029C0 9.99285 0.58806 8.5727 1.65585 7.50491L8.20487 0.955895C8.8215 0.339861 9.64347 0 10.5196 0C11.3957 0 12.2177 0.339861 12.8344 0.955895L16.427 4.54854C17.7031 5.82525 17.7031 7.90191 16.427 9.17802L13.1742 12.4308L25.8306 25.0878L29.084 21.835C29.7018 21.2166 30.5238 20.8761 31.3981 20.8761C32.2731 20.8761 33.095 21.2166 33.7129 21.835L36.8418 24.9634C37.4603 25.5818 37.8007 26.4038 37.8007 27.2781C37.8007 28.1525 37.4603 28.9745 36.8418 29.5929L30.2928 36.1419C29.225 37.2097 27.8049 37.7983 26.2949 37.7983ZM10.5196 1.78561C10.1202 1.78561 9.74644 1.93976 9.46729 2.21891L2.91887 8.76733C2.18796 9.49824 1.78561 10.4696 1.78561 11.5029C1.78561 12.5367 2.18796 13.5081 2.91887 14.239L23.5587 34.8795C24.2896 35.6098 25.261 36.0127 26.2949 36.0127C27.3281 36.0127 28.2995 35.6098 29.0304 34.8795L35.5794 28.3304C36.1591 27.7501 36.1591 26.8061 35.5794 26.2258L32.4504 23.0974C31.8886 22.5356 30.9083 22.5356 30.3464 23.0974L26.4621 26.9817C26.127 27.3162 25.5342 27.3162 25.1997 26.9817L11.2803 13.0623C11.113 12.8951 11.0184 12.6677 11.0184 12.4308C11.0184 12.1945 11.113 11.9671 11.2803 11.7999L15.1646 7.9156C15.4455 7.63466 15.6003 7.26087 15.6003 6.86328C15.6003 6.46628 15.4455 6.09249 15.1646 5.81096L11.5719 2.21832C11.2922 1.93976 10.919 1.78561 10.5196 1.78561Z" fill="black"/>
<path fill-rule="evenodd" clip-rule="evenodd" d="M34.1825 31.8823C33.9539 31.8823 33.7254 31.7954 33.551 31.621L27.0555 25.1256C26.7067 24.7768 26.7067 24.2113 27.0555 23.8632C27.4043 23.5144 27.9692 23.5144 28.318 23.8632L34.8134 30.3586C35.1622 30.7068 35.1622 31.2722 34.8134 31.621C34.639 31.7954 34.4105 31.8823 34.1825 31.8823Z" fill="black"/>
<path fill-rule="evenodd" clip-rule="evenodd" d="M13.7678 11.4677C13.5393 11.4677 13.3107 11.3808 13.1363 11.2064L6.17663 4.24667C5.82784 3.89848 5.82784 3.33304 6.17663 2.98425C6.52542 2.63546 7.09027 2.63546 7.43905 2.98425L14.3988 9.94395C14.7475 10.2921 14.7475 10.8576 14.3988 11.2064C14.2244 11.3808 13.9958 11.4677 13.7678 11.4677Z" fill="black"/>
</svg>
