<svg width="44" height="44" viewBox="0 0 44 44" fill="none" xmlns="http://www.w3.org/2000/svg">
<circle cx="22" cy="22" r="22" fill="#D29965"/>
<path fill-rule="evenodd" clip-rule="evenodd" d="M26.1334 13.8648C29.2261 16.9593 29.2261 21.977 26.1334 25.0715C23.0411 28.1663 18.0273 28.1663 14.935 25.0715C11.8426 21.977 11.8426 16.9593 14.935 13.8648C18.0273 10.7703 23.0411 10.7703 26.1334 13.8648Z" fill="#99746A"/>
<path fill-rule="evenodd" clip-rule="evenodd" d="M24.2095 15.7908C26.2387 17.8219 26.2387 21.1145 24.2095 23.1452C22.1799 25.1762 18.8894 25.1762 16.8598 23.1452C14.8306 21.1145 14.8306 17.8219 16.8598 15.7908C18.8894 13.7598 22.1799 13.7598 24.2095 15.7908Z" fill="white"/>
<path fill-rule="evenodd" clip-rule="evenodd" d="M19.0983 27.5719C16.8393 27.5719 14.7153 26.6916 13.118 25.0932C9.82069 21.7933 9.82069 16.4241 13.118 13.1242C14.7153 11.5258 16.8393 10.6455 19.0983 10.6455C21.3573 10.6455 23.481 11.5258 25.0783 13.1242C28.3756 16.4241 28.3756 21.7933 25.0783 25.0932C23.481 26.6916 21.3573 27.5719 19.0983 27.5719ZM19.0983 11.7233C17.1269 11.7233 15.2736 12.4916 13.8795 13.8865C11.0023 16.7662 11.0023 21.4512 13.8795 24.3309C15.2736 25.7258 17.1269 26.4941 19.0983 26.4941C21.0694 26.4941 22.9227 25.7258 24.3168 24.3309C27.1941 21.4512 27.1941 16.7662 24.3168 13.8865C22.9227 12.4916 21.0694 11.7233 19.0983 11.7233Z" fill="black"/>
<path fill-rule="evenodd" clip-rule="evenodd" d="M19.0983 24.848C17.5664 24.848 16.1259 24.2509 15.0427 23.1667C12.8067 20.9288 12.8067 17.2879 15.0427 15.0501C16.1259 13.9662 17.5664 13.3691 19.0983 13.3691C20.6303 13.3691 22.0704 13.9662 23.1536 15.0501C24.2371 16.134 24.8334 17.5755 24.8334 19.1086C24.8334 20.6413 24.2371 22.0828 23.1536 23.1667C22.0704 24.2509 20.6303 24.848 19.0983 24.848ZM19.0983 14.4469C17.8539 14.4469 16.6839 14.9316 15.8042 15.812C13.9879 17.6297 13.9879 20.587 15.8042 22.4044C16.6839 23.2851 17.8539 23.7698 19.0983 23.7698C20.3424 23.7698 21.5121 23.2851 22.3921 22.4044C23.272 21.5241 23.7564 20.3533 23.7564 19.1086C23.7564 17.8631 23.272 16.6927 22.3921 15.812C21.5121 14.9316 20.3424 14.4469 19.0983 14.4469Z" fill="black"/>
<path fill-rule="evenodd" clip-rule="evenodd" d="M31.9681 33.0567C31.6924 33.0567 31.4166 32.9515 31.2066 32.7411L25.9303 27.4612C25.5096 27.0401 25.5096 26.3576 25.9303 25.9368C26.3508 25.5157 27.0333 25.516 27.4533 25.9368L32.7296 31.2167C33.1504 31.6378 33.1504 32.3203 32.7296 32.7411C32.5192 32.9515 32.2435 33.0567 31.9681 33.0567Z" fill="black"/>
</svg>
