<svg width="12" height="12" viewBox="0 0 12 12" fill="none" xmlns="http://www.w3.org/2000/svg">
<path d="M11.2605 4.67779C11.225 4.57351 11.1597 4.48188 11.0726 4.41421C10.9856 4.34654 10.8805 4.3058 10.7705 4.29701L7.55217 4.04184L6.1595 0.9657C6.11515 0.866624 6.043 0.782473 5.95178 0.723404C5.86056 0.664335 5.75415 0.632872 5.6454 0.632813C5.53665 0.632753 5.43021 0.664099 5.33893 0.723068C5.24764 0.782038 5.1754 0.866109 5.13094 0.965137L3.73827 4.04184L0.519938 4.29701C0.411807 4.30556 0.308434 4.34501 0.222185 4.41064C0.135936 4.47628 0.070463 4.56532 0.0335999 4.66711C-0.00326314 4.7689 -0.00995585 4.87913 0.0143226 4.98462C0.038601 5.09011 0.0928224 5.18638 0.1705 5.26193L2.54882 7.57537L1.70769 11.2097C1.68215 11.3197 1.69033 11.4349 1.73118 11.5402C1.77203 11.6455 1.84366 11.7361 1.93677 11.8003C2.02988 11.8645 2.14018 11.8993 2.25335 11.9001C2.36651 11.901 2.47733 11.8679 2.57141 11.8051L5.64522 9.76038L8.71903 11.8051C8.81519 11.8688 8.92859 11.9016 9.04399 11.8991C9.15938 11.8966 9.27124 11.8589 9.3645 11.791C9.45777 11.7232 9.52798 11.6284 9.56568 11.5196C9.60339 11.4107 9.60678 11.293 9.57541 11.1821L8.5429 7.57706L11.1036 5.2777C11.2712 5.12674 11.3328 4.89128 11.2605 4.67779Z" fill="#EDC951"/>
</svg>
