<svg width="12" height="12" viewBox="0 0 12 12" fill="none" xmlns="http://www.w3.org/2000/svg">
<path d="M2.41716 11.2101C2.39782 11.2927 2.39747 11.3786 2.41614 11.4614C2.43482 11.5442 2.47202 11.6217 2.52497 11.6881C2.57793 11.7544 2.64525 11.808 2.7219 11.8447C2.79855 11.8815 2.88254 11.9004 2.96757 11.9001C3.07908 11.9002 3.1881 11.8672 3.28088 11.8055L6.35469 9.76069L9.42851 11.8055C9.52466 11.8692 9.63807 11.902 9.75346 11.8995C9.86886 11.897 9.98071 11.8592 10.074 11.7914C10.1672 11.7235 10.2374 11.6288 10.2752 11.5199C10.3129 11.4111 10.3163 11.2933 10.2849 11.1825L9.25237 7.57729L11.813 5.27786C11.8951 5.20417 11.9536 5.10811 11.9815 5.00156C12.0094 4.89501 12.0054 4.78264 11.9699 4.67835C11.9345 4.57406 11.8692 4.48242 11.7821 4.41477C11.695 4.34711 11.59 4.30641 11.48 4.2977L8.26164 4.04195L6.86897 0.965711C6.82462 0.866632 6.75248 0.782478 6.66125 0.723407C6.57003 0.664336 6.46362 0.632872 6.35488 0.632813C6.24613 0.632753 6.13969 0.6641 6.0484 0.723071C5.95711 0.782043 5.88488 0.866117 5.84041 0.965148L4.44774 4.04195L1.22941 4.29713C1.12128 4.30568 1.01791 4.34513 0.931657 4.41077C0.845408 4.47641 0.779936 4.56545 0.743073 4.66725C0.70621 4.76904 0.699517 4.87928 0.723795 4.98477C0.748074 5.09026 0.802295 5.18654 0.879973 5.26208L3.25886 7.5756L2.41716 11.2101ZM6.35469 2.56551L7.50744 5.11224L7.83938 5.13872H7.83994L10.0822 5.31616L8.23567 6.97455L8.23511 6.97568L7.97374 7.21002L8.07027 7.54631V7.548L8.77761 10.0181L6.35469 8.40649V2.56551Z" fill="#EDC951"/>
</svg>
