<svg width="13" height="13" viewBox="0 0 13 13" fill="none" xmlns="http://www.w3.org/2000/svg">
<path d="M2.79988 11.467C2.79988 11.467 2.79988 11.467 2.79989 11.4669L3.35124 8.10254L1.01855 5.72097C0.911845 5.61205 0.851985 5.46464 0.850049 5.31153C0.848112 5.15843 0.904216 5.00952 1.00802 4.8978L1.00839 4.8974L1.00839 4.8974C1.09405 4.80587 1.20743 4.74396 1.33318 4.72509L1.33302 4.72512L1.35558 4.87341L1.33339 4.72506L2.79988 11.467ZM2.79988 11.467L2.79985 11.4671L2.94788 11.4914L2.79988 11.467ZM6.75325 0.911593C6.86531 0.969361 6.95462 1.06359 7.00851 1.17824C7.00851 1.17826 7.00852 1.17828 7.00853 1.1783L6.75325 0.911593ZM6.75325 0.911593C6.75328 0.911608 6.75331 0.911623 6.75334 0.911639L6.68445 1.04489L6.75316 0.911547C6.75319 0.911562 6.75322 0.911578 6.75325 0.911593ZM11.6675 4.7252L11.667 4.72512L9.71319 11.9932C9.93918 11.9524 10.0911 11.728 10.0522 11.4914L10.2002 11.4671L10.2002 11.467L9.64881 8.10254L11.9815 5.72096L11.9818 5.72068C12.0689 5.63131 12.126 5.51523 12.1435 5.38897C12.19 5.07388 11.9805 4.77389 11.6675 4.7252ZM4.55155 4.2353L4.51747 4.30764L4.65317 4.37156L4.6306 4.22326L4.55155 4.2353ZM8.34688 4.37156L8.48258 4.30764L8.44851 4.2353L8.36945 4.22326L8.34688 4.37156ZM8.37742 7.60412L8.32424 7.65839L8.33653 7.73337L8.75551 10.2893L6.57231 9.08868L6.49999 9.04891L6.42769 9.08871L4.24457 10.2905L4.66352 7.73473L4.67581 7.65978L4.62267 7.60552L2.843 5.78823L5.29656 5.41476L5.37559 5.40273L5.40967 5.33041L6.50003 3.01658L7.59038 5.33041L7.62446 5.40273L7.7035 5.41476L10.1569 5.78821L8.37742 7.60412Z" fill="#EDC951" stroke="#EDC951" stroke-width="0.3"/>
</svg>
